<?xml version="1.0" standalone="yes"?>
<svg xmlns="http://www.w3.org/2000/svg" width="1007" height="476">
<path style="fill:#F4EACC; stroke:none;" d="M0 0L0 353C27.856 353 53.4577 357.758 77 373.746C130.139 409.835 176.642 486.224 251 475.572C294.803 469.296 322.794 427.01 343.8 392C374.091 341.514 398.941 288.065 431.667 239C447.047 215.941 465.399 188.947 489 173.699C517.249 155.448 551.297 160.041 582 168.576C632.351 182.572 679.802 205.33 731 216.576C753.562 221.531 777.907 224.029 801 221.83C911.499 211.308 975.022 94.5248 1007 0L0 0z"/>
<path style="fill:#fff; stroke:none;" d="M1006 1C1000.64 20.6481 990.776 39.5589 982.309 58C952.965 121.905 907.289 191.498 837 214.255C799.24 226.479 759.042 223.147 721 214.116C668.817 201.728 620.575 175.484 568 164.801C540.107 159.133 510.429 158.067 486 175.039C462.826 191.14 445.128 217.808 429.667 241C395.679 291.982 370.931 348.231 338.319 400C319.68 429.587 290.133 473.294 251 475L251 476L1007 476L1007 140L1007 43C1007 31.0562 1010.61 11.9798 1006 1M0 353L0 476L227 476C219.577 472.667 210.719 471.854 203 468.796C186.09 462.097 170.517 452.411 156 441.525C122.393 416.321 96.3132 379.24 57 362.427C38.3561 354.454 19.9971 353 0 353z"/>
</svg>
