<?xml version="1.0" standalone="yes"?>
<svg xmlns="http://www.w3.org/2000/svg" width="878" height="778">
<path style="fill:#fff; stroke:none;" d="M0 0L0 699L1 699C1.30163 662.563 26.9648 634.311 58 618.753C109.059 593.158 164.584 581.504 203.572 536C215.374 522.225 225.713 507.151 231.946 490C244.65 455.044 243.478 416.976 251.424 381C259.392 344.928 276.154 312.709 303 287.039C337.255 254.285 383.531 235.117 430 228.272C476.011 221.494 527.736 223.146 569 198.547C599.815 180.178 621.747 144.4 635.139 112C640.595 98.8002 644.022 84.8887 650.258 72C663.085 45.4904 681.633 24.5677 697 0L0 0z"/>
<path style="fill:#c8ae1b; stroke:none;" d="M878 778L878 0L745 0L711 0C706.457 0 700.096 -1.13739 696.17 1.60339C683.371 10.537 673.296 29.8386 665.4 43C633.71 95.8168 624.411 169.503 564 200.742C521.939 222.491 473.65 221.345 428 228.424C374.562 236.712 320.791 261.008 286.449 304C266.595 328.854 254.677 358.756 249.435 390C241.574 436.863 242.035 485.569 211.765 525C191.866 550.92 164.527 572.234 135 586.219C87.799 608.575 21.8889 618.395 4.72068 676C0.916395 688.765 0 701.767 0 715C0 730.289 0.573307 744.955 3.60031 760C4.52568 764.599 4.99123 772.752 8.13966 776.397C10.773 779.445 18.391 778 22 778L62 778L223 778L878 778z"/>
<path style="fill:#010101; stroke:none;" d="M0 739L0 778L8 778L0 739z"/>
</svg>
